<svg width="318" height="259" viewBox="0 0 318 259" fill="none" xmlns="http://www.w3.org/2000/svg">
<g filter="url(#filter0_d_26_48)">
<path d="M4 0H314V205.862C314 205.862 285.615 166.978 239.279 154.725C165.443 135.2 140.04 260.315 64.5179 250.444C27.8789 245.655 4 205.862 4 205.862V0Z" fill="#1F7611"/>
</g>
<path d="M4 0H197.904C197.904 0 173.293 32.1928 157.147 39.9924C128.865 53.6552 121.633 4.42487 92.9243 17.0459C74.8051 25.0117 78.4576 34.3594 59.5777 39.9924C49.9549 42.8634 38.241 33.3869 26.8486 30.1582C14.8325 26.7527 4 39.9924 4 39.9924V0Z" fill="#40F400"/>
<defs>
<filter id="filter0_d_26_48" x="0" y="0" width="318" height="259" filterUnits="userSpaceOnUse" color-interpolation-filters="sRGB">
<feFlood flood-opacity="0" result="BackgroundImageFix"/>
<feColorMatrix in="SourceAlpha" type="matrix" values="0 0 0 0 0 0 0 0 0 0 0 0 0 0 0 0 0 0 127 0" result="hardAlpha"/>
<feOffset dy="4"/>
<feGaussianBlur stdDeviation="2"/>
<feComposite in2="hardAlpha" operator="out"/>
<feColorMatrix type="matrix" values="0 0 0 0 0 0 0 0 0 0 0 0 0 0 0 0 0 0 0.25 0"/>
<feBlend mode="normal" in2="BackgroundImageFix" result="effect1_dropShadow_26_48"/>
<feBlend mode="normal" in="SourceGraphic" in2="effect1_dropShadow_26_48" result="shape"/>
</filter>
</defs>
</svg>
